<?xml version="1.0" encoding="utf-8"?>
<!-- Generator: Adobe Illustrator 26.5.0, SVG Export Plug-In . SVG Version: 6.00 Build 0)  -->
<svg version="1.1" xmlns="http://www.w3.org/2000/svg" xmlns:xlink="http://www.w3.org/1999/xlink" x="0px" y="0px"
	 viewBox="0 0 1200 1200" style="enable-background:new 0 0 1200 1200;" xml:space="preserve">
<style type="text/css">
	.st0{fill:none;}
	.st1{fill:#FFFFFF;stroke:#D25627;stroke-width:15;stroke-linecap:round;stroke-linejoin:round;stroke-miterlimit:10;}
	.st2{fill:#FFFFFF;stroke:#D25627;stroke-width:7;stroke-linecap:round;stroke-linejoin:round;stroke-miterlimit:10;}
</style>
<g id="Background">
	<rect class="st0" width="1200" height="1200"/>
</g>
<g id="Graphic_Elements">
	<g>
		<path class="st1" d="M760.81,355.69h-0.01c0.05-1.1,0.09-2.21,0.09-3.32c0-44.73-37.72-83.49-84.26-83.49
			c-34.02,0-63.31,21.9-76.62,49.81H600c-13.3-27.9-42.59-49.81-76.62-49.81c-46.53,0-84.26,38.77-84.26,83.49
			c0,1.11,0.04,2.22,0.09,3.32h-0.01c0,0-4.76,53.13,54.37,111.14c26.88,26.94,56.95,52.53,106.43,92.76
			c49.48-40.22,79.55-65.82,106.43-92.76C765.57,408.82,760.81,355.69,760.81,355.69z"/>
		<g>
			<path class="st1" d="M394.67,555.17c0,0-17.21-34.42-28.28-43.64c-11.06-9.22-6.15-22.13,14.14-19.05
				c20.28,3.07,47.94,39.34,61.47,55.94c13.52,16.6,28.89,17.83,28.89,17.83c49.79,7.38,64.4,10.9,91.65,53.93
				c35.03,55.31,8.61,81.14-28.27,78.68c-36.88-2.46-56.55-20.9-56.55-20.9s-52.32-33.03-72.6-42.25
				c-20.28-9.22-65.16-103.27-75.61-128.47c-10.45-25.2-2.46-114.94,12.29-114.33c14.75,0.61,22.74,9.22,22.74,41.8
				c0,32.58,3.07,47.94,3.07,47.94"/>
			<path class="st1" d="M805.34,555.17c0,0,17.21-34.42,28.27-43.64c11.06-9.22,6.15-22.13-14.14-19.05
				c-20.28,3.07-47.94,39.34-61.47,55.94c-13.52,16.6-28.89,17.83-28.89,17.83c-49.79,7.38-64.4,10.9-91.65,53.93
				c-35.03,55.31-8.61,81.14,28.27,78.68c36.88-2.46,56.55-20.9,56.55-20.9s52.32-33.03,72.6-42.25
				c20.28-9.22,65.16-103.27,75.6-128.47c10.45-25.2,2.46-114.94-12.29-114.33c-14.75,0.61-22.74,9.22-22.74,41.8
				c0,32.58-3.07,47.94-3.07,47.94"/>
		</g>
	</g>
</g>
<g id="Text">
	<g>
		<g>
			<g>
				<path class="st2" d="M513.06,774.87l-7.3,19.84h-4.51l21.07-57.4h5.25l21.98,57.4h-4.84l-7.46-19.84H513.06z M535.77,770.77
					c-6.4-17.06-9.68-25.26-10.82-29.11h-0.08c-1.39,4.35-5.08,14.51-10.25,29.11H535.77z"/>
				<path class="st2" d="M570.62,794.71l-15.91-57.4h4.59c3.85,13.78,12.55,45.51,13.86,52.23h0.08
					c1.07-5.33,10.5-37.06,14.51-52.23h4.92c3.77,14.02,12.96,47.72,13.86,52.15h0.08c1.8-8.12,11.4-38.46,15.33-52.15h4.51
					l-17.55,57.4h-5.08c-3.77-13.53-12.71-46.74-13.69-51.66h-0.08c-1.48,7.46-10.33,37.39-14.43,51.66H570.62z"/>
				<path class="st2" d="M637.37,794.71v-57.4h6.56c8.94,13.78,29.93,45.84,33.54,52.07h0.08c-0.49-8.28-0.41-16.73-0.41-26.08
					v-25.99h4.51v57.4h-6.07c-8.53-13.28-29.85-46.66-33.95-52.97h-0.08c0.41,7.54,0.33,15.91,0.33,26.32v26.65H637.37z"/>
			</g>
		</g>
	</g>
</g>
</svg>
